<?xml version="1.0" standalone="no"?>
<!DOCTYPE svg PUBLIC "-//W3C//DTD SVG 20010904//EN"
 "http://www.w3.org/TR/2001/REC-SVG-20010904/DTD/svg10.dtd">
<svg version="1.0" xmlns="http://www.w3.org/2000/svg"
 width="1280.000000pt" height="1280.000000pt" viewBox="0 0 1280.000000 1280.000000"
 preserveAspectRatio="xMidYMid meet">
<metadata>
Created by potrace 1.14, written by Peter Selinger 2001-2017
</metadata>
<g transform="translate(0.000000,1280.000000) scale(0.100000,-0.100000)"
fill="#000000" stroke="none">
<path d="M6392 12598 c-4 -63 -24 -174 -53 -293 -162 -658 -622 -1457 -1327
-2305 -80 -95 -293 -342 -312 -360 -3 -3 -27 -30 -54 -60 -360 -401 -1077
-1097 -1535 -1490 -36 -30 -72 -62 -80 -70 -48 -46 -389 -326 -591 -485 -231
-183 -636 -471 -817 -580 -18 -11 -86 -52 -151 -92 -362 -220 -798 -408 -1030
-444 -86 -14 -99 -25 -32 -27 52 -2 222 -36 315 -63 247 -72 538 -197 795
-343 58 -32 119 -67 136 -76 283 -160 829 -562 1148 -845 6 -5 50 -44 96 -85
382 -337 851 -810 1246 -1256 152 -172 168 -189 214 -244 25 -29 50 -58 56
-64 37 -39 372 -441 471 -566 141 -179 196 -251 307 -399 624 -832 1020 -1544
1161 -2087 14 -53 28 -121 31 -150 8 -66 18 -70 21 -9 6 108 66 366 129 548
175 502 490 1058 938 1652 50 66 93 122 96 125 3 3 39 48 80 100 40 52 76 97
80 100 3 3 37 43 75 90 286 348 799 889 1195 1260 67 63 139 131 159 151 38
37 106 99 255 234 49 44 96 87 105 95 9 8 50 44 91 80 41 36 93 81 115 102
159 144 546 457 820 663 495 371 889 615 1295 803 183 84 493 182 577 182 60
0 33 8 -82 25 -581 86 -1372 513 -2150 1160 -93 77 -174 146 -189 160 -6 6
-52 46 -101 89 -356 313 -850 811 -1241 1252 -152 172 -168 189 -214 244 -25
29 -50 58 -56 64 -37 39 -372 441 -471 566 -275 349 -503 657 -658 890 -28 41
-52 77 -55 80 -10 10 -50 69 -50 74 0 2 -22 37 -48 78 -133 201 -318 529 -424
748 -131 272 -242 593 -264 762 -8 55 -19 63 -22 16z"/>
</g>
</svg>
